<?xml version="1.0" encoding="UTF-8"?> <!-- Generator: Adobe Illustrator 22.1.0, SVG Export Plug-In . SVG Version: 6.00 Build 0) --> <svg xmlns="http://www.w3.org/2000/svg" xmlns:xlink="http://www.w3.org/1999/xlink" id="Layer_1" x="0px" y="0px" viewBox="0 0 900 900" style="enable-background:new 0 0 900 900;" xml:space="preserve"> <style type="text/css"> .st0{fill:#FFFFFF;} .st1{fill:#231F20;} .st2{fill:#808184;} .st3{fill:url(#SVGID_1_);} </style> <rect x="1" y="1" class="st0" width="897" height="897"></rect> <g> <g> <path class="st1" d="M181.8,699.6v23.1h-4.5v-23.1h-5.1v-3.9h14.6v3.9H181.8z"></path> <path class="st1" d="M200.5,722.7l-1.3-5.7h-7.1l-1.4,5.7h-4.6l6.7-27h5.8l6.6,27H200.5z M195.8,700h-0.2l-2.9,13.4h5.9L195.8,700 z"></path> <path class="st1" d="M226.6,722.7l0.1-20.7h-0.1l-5.4,20.7h-3.6l-5.3-20.7h-0.1l0.1,20.7h-4.2v-27h6.1l5.2,19.7h0.2l5.1-19.7h6.4 v27H226.6z"></path> <path class="st1" d="M257.5,722.7h-5.3l-3.7-20.3h-0.1l-3.7,20.3h-5.3l-5.1-27h4.6l3.5,21h0.2l3.6-21h4.8l3.7,21h0.1l3.5-21h4.4 L257.5,722.7z"></path> <path class="st1" d="M265.8,722.7v-27h12.1v4h-7.7v7.2h7.1v3.7h-7.1v8h8.1v4.1H265.8z"></path> <path class="st1" d="M282.4,722.7v-27h12.1v4h-7.7v7.2h7.1v3.7h-7.1v8h8.1v4.1H282.4z"></path> <path class="st1" d="M299.1,722.7v-27h4.6v22.7h7.4v4.2H299.1z"></path> <path class="st1" d="M321,712.4v10.3h-4.5v-10.3l-6.7-16.6h5l4,12l0.1-0.1l4.1-12h4.8L321,712.4z"></path> <path class="st1" d="M124,763l0.1-20.7H124l-5.4,20.7H115l-5.3-20.7h-0.1l0.1,20.7h-4.2v-27h6.1l5.2,19.7h0.2L122,736h6.4v27H124z "></path> <path class="st1" d="M133.9,763v-27h4.6v27H133.9z"></path> <path class="st1" d="M156.9,762.7c-1.1,0.7-2.5,1-4.2,1c-1.5,0-2.9-0.4-4.1-1.1c-1.2-0.7-2.3-1.7-3.1-3c-0.9-1.3-1.5-2.7-2-4.5 c-0.5-1.7-0.7-3.6-0.7-5.7c0-2.1,0.2-4,0.7-5.7c0.5-1.7,1.1-3.2,2-4.5c0.9-1.3,1.9-2.2,3.1-2.9c1.2-0.7,2.6-1,4.1-1 c1.5,0,2.9,0.3,4.1,0.9c1.2,0.6,2.1,1.4,2.9,2.5l-2.6,3.2c-1-1.5-2.4-2.2-4-2.2c-0.9,0-1.7,0.3-2.4,0.8c-0.7,0.5-1.3,1.2-1.7,2.1 c-0.5,0.9-0.8,1.9-1,3.1c-0.2,1.2-0.3,2.5-0.3,3.9c0,1.3,0.1,2.6,0.3,3.8c0.2,1.2,0.6,2.3,1,3.1c0.5,0.9,1,1.6,1.7,2.1 c0.7,0.5,1.5,0.8,2.5,0.8c0.9,0,1.7-0.2,2.3-0.7c0.6-0.5,1.2-1,1.6-1.7l2.6,3.1C158.9,761.2,158,762,156.9,762.7z"></path> <path class="st1" d="M174,763l-4.2-11.5h-2.6V763h-4.4v-27h7.7c1.1,0,2.1,0.1,3.1,0.4c0.9,0.3,1.7,0.8,2.4,1.4 c0.7,0.6,1.2,1.4,1.6,2.4s0.6,2.1,0.6,3.5c0,1-0.1,2-0.4,2.8c-0.3,0.8-0.6,1.5-1,2c-0.4,0.6-0.9,1-1.4,1.4c-0.5,0.3-1,0.6-1.5,0.7 l4.8,12.4H174z M173.7,743.9c0-0.8-0.1-1.5-0.3-2c-0.2-0.5-0.5-1-0.9-1.3c-0.4-0.3-0.8-0.5-1.2-0.6c-0.5-0.1-0.9-0.2-1.4-0.2h-2.6 v8.3h2.6c1.1,0,2-0.3,2.8-1C173.4,746.4,173.7,745.3,173.7,743.9z"></path> <path class="st1" d="M200.6,749.5c0,2.1-0.2,4.1-0.7,5.8c-0.4,1.7-1.1,3.2-1.9,4.5s-1.9,2.2-3.1,2.9c-1.2,0.7-2.6,1-4.1,1 c-1.5,0-2.9-0.3-4.1-1c-1.2-0.7-2.2-1.7-3-2.9c-0.8-1.2-1.5-2.7-1.9-4.5c-0.4-1.7-0.7-3.7-0.7-5.8c0-2.1,0.2-4.1,0.6-5.8 s1.1-3.2,1.9-4.5c0.8-1.2,1.9-2.2,3.1-2.9c1.2-0.7,2.6-1,4.1-1c1.5,0,2.9,0.3,4.1,1c1.2,0.7,2.2,1.6,3.1,2.9 c0.8,1.2,1.5,2.7,1.9,4.5C200.4,745.4,200.6,747.3,200.6,749.5z M195.9,749.5c0-1.4-0.1-2.7-0.3-3.9s-0.5-2.2-1-3.1 s-0.9-1.6-1.6-2.1c-0.6-0.5-1.3-0.8-2.2-0.8c-0.8,0-1.6,0.3-2.2,0.8c-0.6,0.5-1.1,1.2-1.6,2.1c-0.4,0.9-0.7,1.9-0.9,3.1 s-0.3,2.5-0.3,3.9c0,1.4,0.1,2.7,0.3,3.9s0.5,2.3,0.9,3.1c0.4,0.9,0.9,1.6,1.6,2.1c0.6,0.5,1.4,0.8,2.2,0.8s1.6-0.3,2.2-0.8 c0.6-0.5,1.1-1.2,1.6-2.1c0.4-0.9,0.7-1.9,0.9-3.1S195.9,750.8,195.9,749.5z"></path> <path class="st1" d="M209.5,740.1v7.4h6.9v3.9h-6.9V763h-4.6v-27H217v4.1H209.5z"></path> <path class="st1" d="M220.8,763v-27h4.6v27H220.8z"></path> <path class="st1" d="M242.7,763l-7.7-19h-0.1l0.1,19h-4.1v-27h5.2l7.6,19.2h0.1l0-19.2h4v27H242.7z"></path> <path class="st1" d="M264.9,763l-1.3-5.7h-7.1l-1.4,5.7h-4.6l6.7-27h5.8l6.6,27H264.9z M260.1,740.3H260l-2.9,13.4h5.9 L260.1,740.3z"></path> <path class="st1" d="M284.3,763l-7.7-19h-0.1l0.1,19h-4.1v-27h5.2l7.6,19.2h0.1l0-19.2h4v27H284.3z"></path> <path class="st1" d="M307.7,762.7c-1.1,0.7-2.5,1-4.2,1c-1.5,0-2.9-0.4-4.1-1.1c-1.2-0.7-2.3-1.7-3.1-3c-0.9-1.3-1.5-2.7-2-4.5 c-0.5-1.7-0.7-3.6-0.7-5.7c0-2.1,0.2-4,0.7-5.7c0.5-1.7,1.1-3.2,2-4.5c0.9-1.3,1.9-2.2,3.1-2.9c1.2-0.7,2.6-1,4.1-1 c1.5,0,2.9,0.3,4.1,0.9c1.2,0.6,2.1,1.4,2.9,2.5l-2.6,3.2c-1-1.5-2.4-2.2-4-2.2c-0.9,0-1.7,0.3-2.4,0.8c-0.7,0.5-1.3,1.2-1.7,2.1 c-0.5,0.9-0.8,1.9-1,3.1c-0.2,1.2-0.3,2.5-0.3,3.9c0,1.3,0.1,2.6,0.3,3.8c0.2,1.2,0.6,2.3,1,3.1c0.5,0.9,1,1.6,1.7,2.1 s1.5,0.8,2.5,0.8c0.9,0,1.7-0.2,2.3-0.7c0.6-0.5,1.2-1,1.6-1.7l2.6,3.1C309.7,761.2,308.8,762,307.7,762.7z"></path> <path class="st1" d="M313.7,763v-27h12.1v4h-7.7v7.2h7.1v3.7h-7.1v8h8.1v4.1H313.7z"></path> </g> <g> <path class="st2" d="M164.9,553.5v18.3h-15.8c-2.1,0-3.9-0.2-5.4-0.5c-1.5-0.3-2.7-1-3.6-2c-0.9-1-1.4-2.5-1.4-4.6 c0-1,0.1-2.3,0.4-3.6c0.2-1.4,0.5-2.6,0.8-3.7l4,0.2l-0.3,2.3c-0.2,1.8-0.4,3-0.4,3.7c0,2.5,1.8,3.7,5.4,3.7H160v-13.8H164.9z M147.4,549h3.8v4.6h-3.8V549z M153,549h3.8v4.6H153V549z"></path> <path class="st2" d="M178.9,567.4v4.5h-8.5v-25.6h4.9v21.2H178.9z"></path> <path class="st2" d="M178.9,567.4h9.2v4.5h-9.2V567.4z"></path> <path class="st2" d="M208.1,567.4v4.5h-20v-4.5h5.2c-0.8-1.5-1.2-3.2-1.2-5.2c0-2.1,0.5-3.9,1.4-5.3c0.9-1.4,2-2.3,3.4-2.9 c1.3-0.6,2.7-0.9,4-0.9c0.9,0,1.9,0.1,3.1,0.4c1.2,0.3,2.2,0.6,3.1,1l-0.2,4.6c-0.8-0.4-1.7-0.7-2.7-1.1c-1.1-0.3-2-0.5-2.8-0.5 c-1.1,0-2.1,0.4-3,1.1c-0.9,0.7-1.3,2-1.3,3.7c0,1.1,0.2,2.1,0.6,3c0.4,0.8,0.8,1.5,1.4,2.1H208.1z"></path> <path class="st2" d="M223.6,553.1c1.6,0.2,2.9,0.4,4,0.6v14.9c0,2-0.2,3.9-0.5,5.6c-0.3,1.7-1,3.3-2.2,4.7c-1.1,1.4-2.8,2-5.1,2 c-1.3,0-3.4-0.2-6.4-0.7v-4.4c2.9,0.4,4.9,0.7,5.9,0.7c0.8,0,1.4-0.1,1.8-0.4c0.4-0.3,0.8-0.7,1-1.4c0.2-0.7,0.3-1.6,0.3-2.8h-4.2 c-5.1,0-7.6-2.9-7.6-8.6c0-2.9,0.3-5.1,1-6.6c0.6-1.5,1.6-2.5,2.7-3.1c1.2-0.5,2.7-0.8,4.7-0.8C220.5,552.8,222,552.9,223.6,553.1 z M216.4,566.1c0.5,0.8,1.6,1.3,3.2,1.3h3v-9.9c-0.9-0.1-1.8-0.2-2.7-0.2c-1,0-1.8,0.1-2.5,0.4c-0.6,0.3-1.1,0.8-1.4,1.6 c-0.3,0.8-0.5,2-0.5,3.6C215.6,564.2,215.9,565.3,216.4,566.1z"></path> <path class="st2" d="M245.7,571.8h-6c0,2.9-0.5,5.1-1.6,6.7c-1,1.6-2.5,2.4-4.6,2.4c-0.3,0-1.2,0-2.7-0.1v-4.4l1.2,0.1 c0.9,0,1.5-0.3,2-1c0.4-0.7,0.7-1.7,0.7-2.9v-18.9h4.9v13.8h6V571.8z"></path> <path class="st2" d="M278.1,567.4v4.5h-10.6c-0.8,0-1.6-0.1-2.3-0.4s-1.3-0.6-1.8-1c-1,0.9-2.2,1.4-3.7,1.4h-13.9v-4.5h5.6v-12 h4.9v12h1.7c0.9,0,1.6-0.4,2.1-1.1c0.5-0.7,0.8-1.7,0.8-2.9v-8h4.9v8c0,1.2-0.1,2.4-0.4,3.3c0.2,0.2,0.5,0.3,0.9,0.5 c0.4,0.1,0.7,0.2,1.1,0.2h2.7v-5c0-1.6,0-2.9-0.1-4c0-1.1-0.2-2.7-0.3-4.7l4.3-0.2c0.3,1.6,0.5,3.2,0.7,4.8 c0.2,1.6,0.3,2.7,0.3,3.4v5.7H278.1z M257.9,545.7h3.8v4.4h-3.8V545.7z M260.9,540.7h3.5v4.1h-3.5V540.7z M263.5,545.7h3.8v4.4 h-3.8V545.7z"></path> <path class="st2" d="M305.1,567.4v4.5h-2c-0.4,0-0.8-0.1-1.2-0.4c-0.4-0.3-0.6-0.7-0.8-1.1v1.6h-23v-4.5h5.7 c-0.3-1.8-0.5-3.3-0.5-4.6c0-1.3,0.1-2.8,0.4-4.3c0.3-1.5,0.6-2.9,0.9-4c0.7-0.3,1.6-0.6,2.9-0.8c1.3-0.2,2.7-0.4,4.3-0.4 c2.5,0,4.5,0.4,5.8,1.1c1.4,0.7,2.3,1.8,2.7,3.1c0.5,1.3,0.7,3.1,0.7,5.3v3.1c0.2,0.5,0.4,0.9,0.8,1.2c0.4,0.3,0.8,0.4,1.2,0.4 H305.1z M288.2,565.3c0.1,0.9,0.2,1.6,0.3,2.1h7.7v-4.8c0-1.7-0.3-3-1-3.8c-0.7-0.8-2-1.2-3.9-1.2c-0.9,0-1.9,0.1-2.8,0.3 c-0.3,1.8-0.5,3.4-0.5,4.8C288,563.6,288.1,564.4,288.2,565.3z"></path> <path class="st2" d="M318.3,567.4v4.5h-13.3v-4.5h4.5v-21.2h4.9v21.2H318.3z"></path> <path class="st2" d="M327.8,546.2v25.6h-9.4v-4.5h4.5v-21.2H327.8z"></path> <path class="st2" d="M208.5,615v4.5h-12.9c-2.4,0-4.3-0.3-5.7-0.8c-1.4-0.5-2.4-1.4-3.1-2.8c-0.7-1.4-1-3.3-1-5.9 c0-2.5,0.3-4.3,0.9-5.7c0.6-1.3,1.7-2.2,3.1-2.7c1.4-0.5,3.4-0.8,6-0.8c1.4,0,3,0,4.9,0.1c1.9,0.1,3.2,0.2,4,0.3V615H208.5z M191.2,613.1c0.4,0.7,0.9,1.2,1.6,1.5c0.7,0.3,1.7,0.4,3,0.4h4v-9.6c-1.2-0.1-2.5-0.2-3.8-0.2c-1.3,0-2.4,0.1-3.1,0.4 c-0.7,0.3-1.3,0.7-1.6,1.4c-0.3,0.7-0.5,1.6-0.5,2.9C190.7,611.3,190.8,612.4,191.2,613.1z M191.5,593.2h3.8v4.6h-3.8V593.2z M197.1,593.2h3.8v4.6h-3.8V593.2z"></path> <path class="st2" d="M208.5,615h9.2v4.5h-9.2V615z"></path> <path class="st2" d="M233.5,615v4.5h-15.9V615h5.5v-13.8h4.9V615H233.5z M220.8,622.4h3.8v4.6h-3.8V622.4z M226.4,622.4h3.8v4.6 h-3.8V622.4z"></path> <path class="st2" d="M255.1,600c1.9,1.1,3.3,2.7,4.3,4.7c1,2,1.5,4.3,1.5,6.9v8h-27.4V615h3.8v-0.7c0-1.3,0.3-2.5,1-3.7 c0.7-1.2,1.6-2.1,2.7-2.8c1.2-0.7,2.5-1.1,3.9-1.1c1.4,0,2.7,0.4,3.9,1.1c1.1,0.7,2,1.7,2.7,2.8c0.6,1.2,1,2.4,1,3.7v0.7h3.4v-3.5 c0-3.3-0.9-5.6-2.7-6.9c-1.8-1.3-3.8-1.9-6.1-1.9c-1,0-2.1,0.1-3.4,0.3c-1.3,0.2-3,0.4-5.1,0.8l-0.4-3.9c1.9-0.5,3.6-0.8,5.3-1.1 s3.2-0.4,4.7-0.4C250.9,598.3,253.2,598.8,255.1,600z M243.1,612c-0.5,0.6-0.8,1.3-0.8,2.2v0.8h5.3v-0.8c0-0.9-0.3-1.6-0.8-2.2 c-0.5-0.6-1.1-0.9-1.9-0.9C244.2,611.1,243.6,611.4,243.1,612z"></path> <path class="st2" d="M274.1,615v4.5h-8.5v-25.6h4.9V615H274.1z"></path> <path class="st2" d="M290,615v4.5h-15.9V615h5.5v-13.8h4.9V615H290z M279.7,593h4.5v4.8h-4.5V593z"></path> <path class="st2" d="M305.9,615v4.5H290V615h5.5v-13.8h4.9V615H305.9z M293.2,593.2h3.8v4.6h-3.8V593.2z M298.7,593.2h3.8v4.6 h-3.8V593.2z"></path> <path class="st2" d="M325.4,601.9c1.4,0.7,2.3,1.8,2.7,3.1c0.5,1.3,0.7,3.1,0.7,5.3v9.2h-23V615h5.7c-0.3-1.8-0.5-3.3-0.5-4.6 c0-1.3,0.1-2.8,0.4-4.3c0.3-1.5,0.6-2.9,0.9-4c0.7-0.3,1.6-0.6,2.9-0.8c1.3-0.2,2.7-0.4,4.3-0.4 C322.1,600.8,324,601.2,325.4,601.9z M315.9,612.9c0.1,0.9,0.2,1.6,0.3,2.1h7.7v-4.8c0-1.7-0.3-3-1-3.8c-0.7-0.8-2-1.2-3.9-1.2 c-0.9,0-1.9,0.1-2.8,0.3c-0.3,1.8-0.5,3.4-0.5,4.8C315.8,611.2,315.8,612,315.9,612.9z"></path> <path class="st2" d="M242.1,667.1h-6c0,2.9-0.5,5.1-1.6,6.7c-1,1.6-2.5,2.4-4.6,2.4c-0.3,0-1.2,0-2.7-0.1v-4.4l1.2,0.1 c0.9,0,1.5-0.3,2-1c0.4-0.7,0.7-1.7,0.7-2.9v-18.9h4.9v13.8h6V667.1z"></path> <path class="st2" d="M242.1,662.6h9.2v4.5h-9.2V662.6z"></path> <path class="st2" d="M275.7,662.6v4.5h-4.8c-1.2,0-2.5-0.1-3.7-0.4c-1.3-0.3-2.4-0.7-3.5-1.2c-1.1,0.5-2.3,0.9-3.5,1.2 c-1.2,0.3-2.4,0.4-3.5,0.4h-5.3v-4.5h5.2c0.8,0,1.6-0.1,2.5-0.3c-1.7-1.6-3-2.9-3.9-4.1c-0.9-1.2-1.3-2.5-1.3-3.8l-0.1-3.2 c1.1-0.7,2.6-1.4,4.5-2c1.9-0.6,3.7-0.9,5.5-0.9c1.8,0,3.6,0.3,5.5,0.9c1.9,0.6,3.4,1.2,4.6,2l-0.1,3.2c0,1.3-0.4,2.6-1.3,3.8 c-0.9,1.2-2.2,2.5-3.9,4.1c0.9,0.2,1.7,0.3,2.5,0.3H275.7z M267.6,657c0.8-1.2,1.3-2.3,1.3-3.3c-1.8-0.6-3.6-0.9-5.3-0.9 c-1.7,0-3.4,0.3-5.2,0.9c0,1,0.4,2.1,1.3,3.4c0.9,1.2,2.2,2.3,3.9,3.3C265.5,659.3,266.8,658.1,267.6,657z M261.2,640.6h4.5v4.8 h-4.5V640.6z"></path> <path class="st2" d="M307.2,662.6v4.5h-31.5v-4.5h4.8v-13.8h4.9v5.9c1.1-1.4,2.1-2.5,3-3.3c0.9-0.9,1.9-1.5,3.1-2.1 s2.6-0.8,4.1-0.8c3.1,0,5.3,0.9,6.5,2.8c1.3,1.9,1.9,4.1,1.9,6.6v4.7H307.2z M289.5,655.3c-1.6,1.6-3,3.5-4,5.6v1.7h13.8v-3.8 c0-1.7-0.4-3.1-1.2-4.2c-0.8-1.2-2-1.7-3.5-1.7C292.8,652.9,291.1,653.7,289.5,655.3z"></path> <path class="st2" d="M316.6,641.4v25.6h-9.4v-4.5h4.5v-21.2H316.6z"></path> <path class="st2" d="M322.5,641.4h4.9v25.6h-4.9V641.4z"></path> </g> <g> <path class="st1" d="M446.9,717.6h-2c-1.5,0.9-4.1,3.3-7.8,7.3c-3.7,4-6.5,7.2-8.3,9.6c-2.5-3.6-7.7-7.8-15.7-12.7h-2 c-1.8,1-5.1,4.3-9.9,9.6c-4.8,5.4-8.2,9.5-10.1,12.3v2c6,4.9,12.4,10.6,19,17.1h2c9.6-6.9,15.6-12.8,17.8-17.6 c4.6,3.7,9.4,8.2,14.6,13.3h2c12.2-8.9,18.4-16.1,18.4-21.7c0-3.2-1.5-6.3-4.5-9.3C457.3,724.7,452.8,721.4,446.9,717.6z"></path> <path class="st1" d="M592.8,573.3c0-3.2-1.5-6.3-4.5-9.3c-3-3-7.5-6.3-13.4-10.1h-2c-1.5,0.9-4.1,3.3-7.8,7.3 c-3.7,4-6.5,7.2-8.3,9.6c-2.5-3.6-7.7-7.8-15.7-12.7h-2c-1.8,1-5.1,4.3-9.9,9.6c-4,4.4-6.9,8-8.9,10.7c-0.5-2.3-1.2-4.3-2.4-5.9 c-1.9-2.6-5.3-4.9-10.2-6.7c-6.9-2.8-11.1-5.1-12.8-6.8c-1.7-1.7-2.8-3.2-3.2-4.6c-0.5-1.4-0.7-3-0.7-4.7c0-4.2,1-7.9,3-11.1 c0.3-0.5,0.5-1,0.7-1.4c4-7.5,7-13.8,8.8-18.8c0.7,2,1.7,3.9,2.8,5.7c4.9,8.1,12.3,12.1,22.4,12.1c0.9,0,1.7-0.1,2.6-0.2 c8.6-0.8,16.2-5.5,22.6-14.3c7.1-9.7,12.5-23.6,16.3-41.7l-4.8-1.2c-3.1,6.4-6.7,11.6-10.7,15.4c-4,3.8-8.9,5.8-14.7,5.8 c0,0-0.1,0-0.1,0c0,0,0,0,0,0c-6.1,0-11-1.7-14.6-5.2c-3.6-3.4-6.1-8.5-7.7-15.1c-1.5-6.6-2.3-17.4-2.3-32.1 c0.2-43.4,2-74.2,5.6-92.1l-4.6-1.3c-3.9,9-6.9,18-9.2,27.2c-2.2,9.1-3.7,19.2-4.4,30.1c-0.7,10.9-1.2,20.2-1.7,27.8 c-0.4,7.7-1,18.9-1.7,33.6c-1,19.3-2.5,32.4-4.5,39.3c-1.6,4.9-5.3,12.6-11.1,23c-8.3,14.8-12.4,28.5-12.4,41.2 c0,9.6,4.4,16.3,13.3,20.2c7.8,3.2,13,5.9,15.8,8.1c2.8,2.2,4.1,4.9,4.1,8.1c0,5.3-3.4,11.9-10.2,19.7 c-6.8,7.8-15.2,14.3-25.2,19.3c-10,5-21.1,7.6-33.4,7.6c-15.1,0-26.8-4.1-35.2-12.2c-8.4-8.1-12.6-19-12.6-32.5 c0-11.6,2.2-23.1,6.7-34.6c4.4-11.5,10.9-24.6,19.4-39.2l-6-3.5c-12.1,17.8-21.3,35.8-27.7,54c-6.4,18.3-9.6,35.3-9.6,51 c0,17.1,4.7,31,14.1,41.8c9.4,10.8,21.6,16.2,36.6,16.2c12.8,0,25-3.2,36.8-9.7c11.8-6.5,22.3-15.7,31.7-27.7 c9.4-12,16.9-25.5,22.4-40.6c5.5-15,8.3-27.9,8.3-38.6c5.5,4.6,11.3,9.8,17.4,15.7h2c9.6-6.9,15.6-12.8,17.8-17.6 c4.6,3.7,9.4,8.2,14.6,13.3h2C586.7,586.1,592.8,578.9,592.8,573.3z"></path> <path class="st1" d="M790,350.5c-3-2.9-7.5-6.3-13.4-10.1h-2c-1.4,0.9-4,3.4-7.7,7.4c-3.7,4-6.5,7.2-8.4,9.6 c-2.8-3.8-8.1-8.1-15.7-12.8h-2c-1.8,1.1-5.1,4.4-9.9,9.7c-4.8,5.4-8.2,9.4-10.1,12.2v2c6,4.9,12.4,10.6,19,17.1h2 c9.6-6.9,15.5-12.7,17.8-17.5c4.6,3.7,9.4,8.1,14.6,13.3h2c12.2-8.9,18.4-16.2,18.4-21.8C794.5,356.5,793,353.4,790,350.5z"></path> <path class="st1" d="M744.1,433.5c-7.7,7.3-14.6,15.8-20.6,25.6c-4.1,7.2-6.8,12.2-8.2,15.1c-3.4,7.6-5.1,13-5.2,16.5 c-3.6,2.5-7.4,6.3-11.3,11.7l-6.8,9.3c-10.4,14.1-22.4,22.7-35.9,25.6c-0.6-23.4-7.2-35.1-20.1-35.1c-6.9,0-12.1,3.6-15.6,10.9 l-7.5,15.1c-3.1,6.2-4.6,11.9-4.6,17c0,4.8,1.8,8.7,5.5,11.6c3.4,2.8,7.9,4.3,13.4,4.5c2.7,0,5.7-0.2,9.2-0.6 c3.4-0.4,6-0.7,7.6-0.8c-1,3.1-3.1,6.9-6.5,11.5c-4,5.4-11.6,12.5-22.6,21.2c-11,8.7-22.2,16.4-33.4,23.1l1.1,5 c10.1-2.7,20.4-6.1,31-10.2c10.6-4.1,17.7-7.4,21.3-10c6.8-8.1,12-17.4,15.7-28.2c1.9-5.7,3.4-11.4,4.3-17 c1.8-0.7,3.6-1.4,5.3-2.3c6.4-3.3,14-9.6,22.9-18.8c10.1-11.2,16.8-16.8,20.2-16.8c1,0,2.4,0.2,4.1,0.6c1.8,0.4,4.4,1.5,8,3.4 c3.5,1.9,6.3,2.8,8.3,2.8c4.4-0.1,8.7-3.2,12.9-9.5c4.2-6.3,6.4-11.9,6.6-16.8l0,0l0,0c0-3.8-2.4-6.9-7.3-9.3l-6.3-3.5 c-3.4-1.9-5.2-4.1-5.2-6.8c0-2.2,0.5-4.2,1.4-6.2c0.9-1.9,1.6-3.2,2-3.9c3.9-6,8.6-10.8,14.2-14.2c5.6-3.4,11.5-6.2,17.8-8.2 c1.3-1.3,3.4-5.9,6.4-13.7c3-7.8,4.6-12.7,4.9-14.7l-1.3-2C760.4,420.2,751.8,426.2,744.1,433.5z"></path> </g> <g> <linearGradient id="SVGID_1_" gradientUnits="userSpaceOnUse" x1="288.5106" y1="412.1772" x2="289.6455" y2="216.4974"> <stop offset="0" style="stop-color:#EC1651"></stop> <stop offset="1" style="stop-color:#A51A32"></stop> </linearGradient> <path class="st3" d="M150.8,311.5c-15,20.4-21.2,29.8-30.4,45.7c-9.7-19.7-12.8-28.9-14.9-43.7c2.1-15.8,5.3-25.5,15.1-45.7 C129.8,282.7,136,291.7,150.8,311.5z M175.2,208.2c-2.8-2.9-8.2-1.7-12.2,2.4c-13,13.6-19.3,20.7-29.8,34.6 c-3.2,4.2-3,10.4-0.5,13.7c8.1,11,12.9,17.1,23.5,30.4c3.2,4,8.7,3.8,12.3-0.7c12-15,18.7-22.8,33-37.8c4.3-4.5,4.7-11.4,1-15.1 C189.9,223,184.6,217.7,175.2,208.2z M247.6,160.1c-7-4.7-18.9-4.4-27.6,0.7c-8.2,4.8-12,8.2-19.8,14.9 c-8.4,7.1-10.6,17.4-4.4,23.1c5.9,5.4,9,8.2,16,14.8c7.5,7.1,21.5,6.4,30.6-1.4c8.6-7.3,12.8-10.8,21.2-17.3 c8.9-7,9.1-17.2,1.3-22.8C257.5,166.8,254.1,164.4,247.6,160.1z M310.7,138.1c-10.9-2.3-25.6-2.3-36.2,0c-1.5,0.3-2.3,0.5-3.8,0.9 c-10.9,2.7-13.5,10.6-2.5,17.2c1.5,0.9,2.3,1.4,3.9,2.4c11.2,6.9,31.5,6.9,42.3,0.1c1.5-1,2.3-1.4,3.8-2.4 c10.6-6.5,7.6-14.5-3.6-17.2C313,138.6,312.3,138.4,310.7,138.1z M163.2,327.6C147,348,140,357.3,128.9,373.2 c11.9,20.6,21,31.3,40.2,51.1c13.2-14,21.6-22.8,41-42.6C188.9,360,179.6,348.4,163.2,327.6z M232.7,265.9 c-4.4-4.4-11.5-4.1-16,0.5c-15,15.3-22,23.2-34.6,38.2c-3.8,4.5-3.9,11.7-0.1,16.1c12.5,14.8,19.4,22.7,34.3,38.1 c4.5,4.6,11.7,4.8,16.1,0.4c14.7-14.9,22.5-22.8,38.1-38.4c4.7-4.7,4.7-12.4,0-17C254.9,288.1,247.1,280.4,232.7,265.9z M311.5,208.2c-9-7.5-23-7.6-32-0.1c-8.4,6.9-12.7,10.6-21.3,18.2c-9.2,8.1-9.8,22.2-0.8,31c8.4,8.2,12.8,12.5,21.5,21.1 c9.3,9.2,24.7,9.2,33.9,0.1c8.6-8.6,12.9-12.8,21.2-20.9c8.8-8.7,8.2-22.6-1.1-30.9C324.3,218.9,320,215.2,311.5,208.2z M375.2,168.5c-12.5-9.9-30.3-10.4-40.9-2.8c-1.5,1.1-2.3,1.6-3.8,2.7c-10.9,7.9-10.3,23.4,3.4,34.6c1.9,1.6,2.9,2.4,4.8,4 c13.7,11.5,34.4,12.5,44.2,3.1c1.4-1.3,2.1-2,3.4-3.3c9.5-9,5.8-24.5-6.7-34.8C377.9,170.6,377,169.9,375.2,168.5z M227.2,398.9 c-19.9,19.4-28.6,27.8-42.6,41c19.8,19.2,30.5,28.3,51.1,40.2c15.9-11,25.3-18,45.6-34.3C260.6,429.4,249,420.1,227.2,398.9z M305.3,338.6c-4.7-4.7-12.3-4.7-17.1,0c-15.7,15.6-23.5,23.4-38.4,38.1c-4.5,4.4-4.3,11.6,0.4,16.1 c15.4,14.9,23.3,21.8,38.1,34.3c4.5,3.8,11.6,3.7,16.1-0.1c15-12.7,22.9-19.7,38.2-34.7c4.6-4.5,4.9-11.6,0.5-16 C328.6,361.9,320.9,354.1,305.3,338.6z M381.5,276.9c-8.3-9.2-22.3-9.9-31-1c-8.1,8.3-12.4,12.6-20.9,21.2 c-9.2,9.2-9.2,24.6,0.1,33.9c8.6,8.7,12.9,13.1,21.1,21.5c8.8,9,22.9,8.5,31.1-0.8c7.6-8.7,11.3-13,18.3-21.3c7.4-9,7.4-23-0.1-32 C393,289.9,389.3,285.6,381.5,276.9z M437,229.4c-10.3-12.5-25.8-16.1-34.8-6.7c-1.3,1.3-1.9,2-3.3,3.4 c-9.4,9.8-8.3,30.6,3.1,44.2c1.6,1.9,2.4,2.9,4,4.8c11.2,13.6,26.7,14.2,34.6,3.4c1.1-1.5,1.7-2.3,2.7-3.8 c7.6-10.6,7.1-28.4-2.8-40.9C439.1,232,438.4,231.2,437,229.4z M297.6,458.2c-20.4,15-29.8,21.2-45.7,30.4 c19.7,9.7,28.9,12.8,43.7,14.9c15.9-2.1,25.5-5.3,45.8-15.1C326.3,479.2,317.3,473,297.6,458.2z M373.5,406.6 c-3.8-3.8-10.6-3.3-15.1,1c-15.1,14.3-22.9,20.9-37.8,33c-4.5,3.6-4.7,9.1-0.7,12.3c13.3,10.6,19.4,15.3,30.4,23.5 c3.3,2.5,9.6,2.6,13.7-0.5c13.9-10.6,21-16.8,34.6-29.8c4.1-3.9,5.2-9.3,2.4-12.2C391.3,424.4,386,419.1,373.5,406.6z M436.4,345.2c-5.6-7.7-15.9-7.6-22.9,1.4c-6.6,8.4-10.1,12.6-17.4,21.2c-7.8,9.1-8.6,23.1-1.4,30.6c6.7,7,9.5,10,14.8,15.9 c5.7,6.2,16.1,4,23.2-4.4c6.7-7.8,10.2-11.6,15.1-19.8c5.2-8.8,5.4-20.7,0.7-27.7C444,355.9,441.6,352.4,436.4,345.2z M470,294.4 c-2.8-11.2-10.7-14.2-17.2-3.6c-0.9,1.5-1.4,2.3-2.4,3.8c-6.9,10.9-6.8,31.2,0.1,42.3c1,1.6,1.5,2.4,2.4,3.9 c6.5,10.9,14.4,8.4,17.2-2.6c0.4-1.5,0.6-2.3,0.9-3.8c2.3-10.6,2.3-25.2,0-36.2C470.6,296.7,470.4,296,470,294.4z"></path> </g> </g> </svg> 